<svg xmlns="http://www.w3.org/2000/svg" viewBox="0 0 512 512" width="512" height="512">
  <defs>
    <linearGradient id="g" x1="0" y1="0" x2="1" y2="1">
      <stop offset="0" stop-color="#A78BFA"/>
      <stop offset="0.55" stop-color="#8B5CF6"/>
      <stop offset="1" stop-color="#EC4899"/>
    </linearGradient>
  </defs>
  <rect width="512" height="512" fill="url(#g)"/>
  <g fill="#fff" transform="translate(0,-8)">
    <path d="M180 168c32-6 70-2 100 18v182c-30-18-68-22-100-16-10 2-19-6-19-16V184c0-8 6-14 19-16z"/>
    <path d="M332 168c-32-6-70-2-100 18v182c30-18 68-22 100-16 10 2 19-6 19-16V184c0-8-6-14-19-16z" opacity="0.82"/>
  </g>
</svg>
